# xmcd
#
# Track frame offsets:
#       150
#       20333
#       39341
#       48411
#       69080
#       85925
#       103298
#       128076
#       137471
#       150746
#       173012
#       192749
#       207841
#       222668
#
# Disc length: 3234 seconds
#
# Revision: 0
# Processed by: cddbd v1.5.2PL0 Copyright (c) Steve Scherf et al.
# Submitted via: WaveLab 4.01
#
DISCID=c20ca00e
DTITLE=Christian Vaida - Piano and Vocal Vol. 1
DYEAR=1998
DGENRE=Pop
TTITLE0=Don`t You Think It`s Time
TTITLE1=And I Believe
TTITLE2=The Last Days Of Paradise
TTITLE3=I Have To Play
TTITLE4=All The Way
TTITLE5=J`avais Un Reve
TTITLE6=Dream
TTITLE7=Sei Allzeit Froh
TTITLE8=Never Go Away
TTITLE9=When I Think Of You
TTITLE10=Venice Dream
TTITLE11=Love At First Sight
TTITLE12=Improvisation
TTITLE13=Stop It
EXTD=
EXTT0=
EXTT1=
EXTT2=
EXTT3=
EXTT4=
EXTT5=
EXTT6=
EXTT7=
EXTT8=
EXTT9=
EXTT10=
EXTT11=
EXTT12=
EXTT13=
PLAYORDER=
